<svg width="43" height="43" viewBox="0 0 43 43" fill="none" xmlns="http://www.w3.org/2000/svg">
<g clip-path="url(#clip0_21_76)">
<path d="M21.2705 42.5409C33.0178 42.5409 42.5409 33.0178 42.5409 21.2705C42.5409 9.52311 33.0178 0 21.2705 0C9.52311 0 0 9.52311 0 21.2705C0 33.0178 9.52311 42.5409 21.2705 42.5409Z" fill="#6761A4"/>
<path d="M14.5014 12.3777C14.3184 12.5002 14.2057 12.7298 14.2566 12.9899L15.5156 21.691L16.5454 21.1036L15.6839 15.1502C15.6634 14.8865 15.8865 14.594 16.1791 14.5373C16.7406 14.3822 17.1867 13.7972 17.0968 13.2977C17.0747 13.1451 17.1253 13.006 17.1997 12.9085C17.2994 12.7415 17.3974 12.6855 17.5682 12.6432L21.8875 11.5564C22.1801 11.4996 22.4694 11.6651 22.4899 11.9288C22.5799 12.4283 23.1586 12.7592 23.72 12.6042C23.8908 12.5618 24.0363 12.589 24.1328 12.6442C24.302 12.7129 24.3494 12.796 24.3715 12.9487L24.8574 16.307L25.8871 15.7196L25.0917 10.2238C25.0206 10.0991 24.9497 9.97483 24.8532 9.91968C24.7568 9.86453 24.6113 9.83735 24.4405 9.87971L14.7041 12.2934C14.6325 12.3072 14.563 12.3361 14.5014 12.3777ZM8.63494 16.6925C8.48784 16.7764 8.41324 16.8735 8.36259 17.0126C8.31194 17.1516 8.31055 17.2631 8.38168 17.3878L12.1749 24.0374C12.3742 23.7033 12.6226 23.3413 12.9422 23.1039L10.5477 18.9064C10.4055 18.657 10.5068 18.3789 10.801 18.2111C11.3404 17.9034 11.5683 17.2776 11.3075 16.8205C11.2364 16.6958 11.2378 16.5843 11.2884 16.4452C11.3391 16.3062 11.4137 16.2091 11.5608 16.1252L13.4241 15.0623L13.2932 14.0353L8.63494 16.6925ZM18.1895 13.3905C18.0817 14.1129 17.5612 14.7955 16.851 15.1455L17.5767 20.4051L23.755 16.8808L23.2674 13.6336C22.5146 13.5672 21.8395 13.1812 21.5566 12.5714L18.1895 13.3905ZM12.4762 16.7046C12.612 17.3983 12.3334 18.1632 11.7418 18.721L13.8991 22.503L14.4876 22.1673L13.604 16.0613L12.4762 16.7046ZM19.8021 14.0289C19.8668 13.9975 19.9342 13.9711 20.005 13.9517C20.5665 13.7966 21.1442 14.1281 21.2342 14.6276C21.3242 15.1271 20.878 15.7121 20.3165 15.8671C19.7551 16.0222 19.1278 15.719 19.0869 15.1915C19.0513 14.7304 19.3509 14.2461 19.8021 14.0289ZM13.883 23.6139C13.0494 24.0894 12.7201 24.9933 13.1232 25.6998L17.3905 33.1805C17.7935 33.8871 18.7392 34.0637 19.5727 33.5882L33.3022 25.7564C34.1358 25.2808 34.465 24.3769 34.062 23.6704L34.013 23.6984L33.7759 23.2828L29.8042 25.5484C28.4802 26.3037 26.8799 26.0047 26.2161 24.841C25.5523 23.6774 26.1095 22.1477 27.4334 21.3925L31.4052 19.1268L29.7456 16.2176C29.3426 15.5111 28.397 15.3345 27.5634 15.81L13.883 23.6139ZM27.9566 22.1957C27.1721 22.6432 26.8428 23.5471 27.2458 24.2536C27.6489 24.9602 28.5945 25.1368 29.379 24.6893L33.3508 22.4236L31.9283 19.93L27.9566 22.1957ZM28.4798 22.9989C28.725 22.8591 29.065 22.8854 29.2072 23.1348C29.2767 23.3706 29.1991 23.6903 28.9539 23.8301C28.7088 23.97 28.3688 23.9436 28.2265 23.6942C28.0843 23.4449 28.1856 23.1667 28.4798 22.9989Z" fill="white"/>
</g>
<defs>
<clipPath id="clip0_21_76">
<rect width="42.5409" height="42.5409" fill="white"/>
</clipPath>
</defs>
</svg>
